<?xml version="1.0" standalone="no"?>
<!DOCTYPE svg PUBLIC "-//W3C//DTD SVG 20010904//EN"
 "http://www.w3.org/TR/2001/REC-SVG-20010904/DTD/svg10.dtd">
<svg version="1.0" xmlns="http://www.w3.org/2000/svg"
 width="1308.000000pt" height="876.000000pt" viewBox="0 0 1308.000000 876.000000"
 preserveAspectRatio="xMidYMid meet">

<g transform="translate(0.000000,876.000000) scale(0.100000,-0.100000)"
fill="#000000" stroke="none">
<path d="M7275 6462 c-17 -9 -139 -127 -271 -262 -307 -313 -340 -367 -364
-604 -15 -146 -50 -240 -122 -324 -15 -18 -28 -36 -28 -40 0 -3 21 -28 46 -54
l47 -47 46 39 c91 75 172 105 330 120 226 21 296 64 605 369 131 130 245 250
252 268 23 54 -8 103 -65 103 -32 0 -52 -16 -261 -224 -124 -124 -236 -229
-250 -234 -63 -24 -124 45 -94 104 8 16 114 129 236 251 191 191 221 226 221
252 0 58 -53 91 -106 66 -18 -8 -124 -110 -237 -226 -112 -117 -218 -217 -234
-224 -59 -25 -123 28 -108 89 3 12 109 125 235 253 201 202 230 236 230 263 0
58 -59 91 -108 62z"/>
<path d="M5197 6306 c-46 -35 -35 -111 44 -308 134 -338 329 -638 526 -809
133 -117 264 -178 421 -197 50 -6 94 -18 113 -30 17 -11 205 -235 418 -497
212 -263 399 -487 414 -499 41 -30 153 -30 194 0 73 54 95 152 54 232 -11 21
-474 491 -1063 1080 -924 923 -1047 1042 -1073 1042 -17 0 -38 -7 -48 -14z"/>
<path d="M5722 4575 c-358 -308 -401 -348 -417 -389 -45 -118 39 -245 162
-246 84 0 93 8 472 449 196 229 360 422 364 428 11 17 -30 69 -62 82 -14 5
-47 11 -73 14 l-46 4 -400 -342z"/>
<path d="M3925 3528 c-78 -45 -48 -158 42 -158 44 0 83 40 83 84 -1 65 -70
106 -125 74z"/>
<path d="M7170 3117 l0 -407 85 0 85 0 2 187 3 188 118 -138 c66 -75 120 -137
122 -137 2 0 57 62 122 137 l118 136 3 -186 2 -187 85 0 85 0 0 400 c0 220 -2
400 -4 400 -3 0 -94 -100 -202 -222 -109 -123 -201 -224 -205 -226 -4 -2 -96
97 -205 220 -108 123 -201 227 -206 233 -4 5 -8 -174 -8 -398z"/>
<path d="M3000 3104 l0 -395 223 3 c259 4 298 14 390 98 162 148 165 442 7
582 -96 86 -187 108 -447 108 l-173 0 0 -396z m417 235 c103 -26 161 -133 150
-271 -8 -97 -37 -145 -108 -181 -49 -25 -70 -29 -172 -34 l-117 -6 0 252 0
251 101 0 c55 0 121 -5 146 -11z"/>
<path d="M8990 3390 l0 -80 -35 0 -35 0 0 -70 0 -70 35 0 35 0 0 -194 c0 -181
1 -195 21 -220 11 -14 33 -32 47 -40 35 -17 134 -29 172 -21 29 6 30 8 30 71
l0 64 -39 0 c-64 0 -71 18 -71 192 l0 148 60 0 60 0 0 70 0 70 -60 0 -60 0 0
80 0 80 -80 0 -80 0 0 -80z"/>
<path d="M4440 3294 c-19 -8 -42 -22 -52 -31 -17 -15 -18 -14 -18 10 0 27 0
27 -80 27 l-80 0 0 -295 0 -295 80 0 80 0 0 193 c0 213 4 229 60 258 67 36
130 19 154 -43 13 -30 16 -79 16 -223 l0 -185 81 0 80 0 -3 228 -3 227 -28 48
c-22 38 -41 54 -80 73 -61 28 -152 32 -207 8z"/>
<path d="M5161 3299 c-13 -5 -36 -18 -52 -30 l-29 -20 0 25 c0 26 -1 26 -80
26 l-80 0 0 -295 0 -295 80 0 80 0 0 174 c0 95 3 187 6 205 19 92 158 125 204
48 18 -29 20 -51 20 -229 l0 -198 86 0 86 0 -4 218 c-4 191 -7 222 -25 262
-24 54 -69 95 -121 110 -45 12 -139 12 -171 -1z"/>
<path d="M5813 3291 c-29 -10 -60 -24 -70 -31 -49 -37 -77 -69 -101 -115 -24
-44 -27 -62 -27 -145 0 -72 4 -104 18 -132 74 -147 295 -217 454 -141 36 17
113 85 113 101 0 4 -26 22 -57 39 l-58 31 -30 -23 c-55 -45 -166 -52 -236 -14
-16 8 -49 58 -49 74 0 3 106 5 236 5 l237 0 -5 83 c-5 94 -25 142 -85 199 -81
79 -228 109 -340 69z m194 -141 c27 -16 63 -65 63 -85 0 -3 -67 -5 -150 -5
-138 0 -149 1 -143 18 28 78 154 119 230 72z"/>
<path d="M6636 3295 c-21 -7 -50 -25 -65 -39 -36 -34 -41 -33 -41 9 l0 35 -80
0 -80 0 0 -295 0 -295 79 0 79 0 4 163 c2 131 7 168 21 194 21 39 86 79 145
88 l42 7 0 74 0 74 -32 0 c-18 -1 -50 -7 -72 -15z"/>
<path d="M8315 3287 c-174 -83 -222 -345 -91 -494 57 -65 122 -93 216 -93 74
0 148 22 164 49 12 19 26 12 26 -14 0 -25 1 -25 80 -25 l80 0 0 295 0 295 -80
0 c-79 0 -80 0 -80 -25 0 -31 -1 -31 -52 3 -36 23 -53 27 -127 30 -74 2 -93
-1 -136 -21z m265 -152 c39 -37 53 -84 48 -156 -7 -91 -62 -139 -161 -139 -63
0 -110 26 -141 79 -25 43 -25 137 -1 179 48 80 189 101 255 37z"/>
<path d="M9585 3296 c-61 -19 -97 -41 -136 -83 -64 -67 -74 -95 -74 -214 0
-100 2 -108 30 -154 61 -98 166 -149 302 -147 86 1 159 31 217 91 l38 39 -38
25 c-78 48 -76 48 -122 17 -23 -15 -61 -31 -84 -34 -58 -9 -141 16 -167 51
-42 52 -40 52 212 55 l232 3 -1 76 c-1 64 -6 85 -30 129 -16 29 -46 67 -67 86
-75 64 -215 91 -312 60z m185 -148 c19 -13 40 -38 47 -55 l13 -33 -150 0 c-82
0 -150 2 -150 5 0 4 7 19 15 35 34 66 159 92 225 48z"/>
<path d="M3890 3005 l0 -295 80 0 80 0 0 295 0 295 -80 0 -80 0 0 -295z"/>
<path d="M6744 2490 c-28 -11 -54 -48 -54 -77 0 -38 41 -75 83 -75 45 0 67 16
67 48 0 21 -5 24 -32 23 -31 0 -32 -1 -9 -10 19 -8 21 -12 11 -24 -28 -34 -92
-7 -92 38 0 44 20 60 69 54 48 -5 57 8 17 23 -29 12 -32 12 -60 0z"/>
<path d="M9078 2489 c-31 -17 -22 -57 17 -80 46 -27 47 -52 3 -47 -42 4 -52
-12 -15 -25 21 -7 34 -5 53 8 36 23 28 55 -18 80 -55 29 -51 50 10 45 12 -1
22 3 22 8 0 5 -10 12 -22 16 -29 7 -30 7 -50 -5z"/>
<path d="M3560 2415 c0 -59 3 -75 14 -75 11 0 16 15 18 53 l3 52 19 -37 c11
-21 23 -38 28 -38 5 0 16 16 25 35 23 48 33 44 33 -15 0 -27 5 -50 10 -50 6 0
10 32 10 75 0 87 -16 99 -51 40 -12 -19 -24 -35 -28 -35 -3 0 -15 16 -25 35
-11 21 -27 35 -38 35 -16 0 -18 -9 -18 -75z"/>
<path d="M3880 2415 l0 -75 50 0 c28 0 50 5 50 10 0 6 -18 10 -40 10 -36 0
-40 3 -40 25 0 23 4 25 40 25 22 0 40 5 40 10 0 6 -18 10 -40 10 -36 0 -40 3
-40 24 0 22 5 25 43 29 40 3 40 4 -10 5 l-53 2 0 -75z"/>
<path d="M4155 2423 c-17 -37 -31 -71 -33 -75 -2 -4 3 -8 11 -8 8 0 17 7 21
15 3 10 19 15 46 15 27 0 43 -5 46 -15 6 -14 34 -22 34 -10 0 18 -73 145 -83
145 -7 0 -26 -30 -42 -67z m63 2 c16 -35 16 -35 -18 -35 -16 0 -30 2 -30 5 0
11 24 55 30 55 4 0 12 -11 18 -25z"/>
<path d="M4430 2415 l0 -75 50 0 c28 0 50 5 50 10 0 6 -18 10 -40 10 l-40 0 0
65 c0 37 -4 65 -10 65 -6 0 -10 -32 -10 -75z"/>
<path d="M4860 2415 c0 -43 4 -75 10 -75 6 0 10 11 10 25 0 19 5 25 23 25 47
0 75 44 51 79 -11 15 -26 21 -55 21 l-39 0 0 -75z m73 44 c15 -24 1 -49 -28
-49 -22 0 -25 4 -25 36 0 31 3 35 21 32 12 -2 27 -10 32 -19z"/>
<path d="M5110 2415 l0 -75 55 0 c30 0 55 5 55 10 0 6 -18 10 -40 10 l-40 0 0
65 c0 51 -3 65 -15 65 -12 0 -15 -15 -15 -75z"/>
<path d="M5385 2420 c-19 -38 -35 -72 -35 -75 0 -12 28 -4 34 10 8 22 85 20
102 -2 7 -10 15 -15 18 -12 10 9 -57 148 -71 149 -7 0 -29 -31 -48 -70z m63 5
c16 -35 16 -35 -17 -35 -28 0 -29 1 -18 30 14 37 20 37 35 5z"/>
<path d="M5660 2415 c0 -43 4 -75 10 -75 6 0 10 23 10 50 0 28 4 50 9 50 5 0
23 -22 41 -50 46 -72 60 -67 60 25 0 60 -3 75 -15 75 -11 0 -15 -13 -15 -52
l-1 -53 -32 52 c-18 30 -39 53 -49 53 -16 0 -18 -10 -18 -75z"/>
<path d="M5940 2415 c0 -59 3 -75 15 -75 10 0 15 15 17 57 l3 58 35 -58 c47
-79 60 -75 60 18 0 85 -17 103 -22 23 l-3 -53 -34 53 c-21 33 -40 52 -52 52
-17 0 -19 -8 -19 -75z"/>
<path d="M6230 2415 c0 -43 4 -75 10 -75 6 0 10 32 10 75 0 43 -4 75 -10 75
-6 0 -10 -32 -10 -75z"/>
<path d="M6410 2415 c0 -88 18 -102 22 -17 l3 57 39 -57 c54 -80 66 -77 66 17
0 43 -4 75 -10 75 -5 0 -10 -22 -10 -50 0 -27 -3 -50 -7 -50 -5 0 -21 23 -38
50 -18 30 -36 50 -47 50 -16 0 -18 -10 -18 -75z"/>
<path d="M7170 2415 c0 -60 3 -75 15 -75 11 0 15 13 15 53 l1 52 22 -37 c12
-21 25 -38 28 -38 3 0 14 16 25 35 10 19 22 35 26 35 5 0 8 -22 8 -50 0 -27 5
-50 10 -50 6 0 10 32 10 75 0 65 -2 75 -18 75 -10 0 -26 -15 -36 -35 -11 -19
-23 -35 -28 -35 -4 0 -16 16 -25 35 -10 21 -24 35 -35 35 -16 0 -18 -9 -18
-75z"/>
<path d="M7510 2421 c-18 -39 -30 -74 -26 -78 4 -5 13 0 20 10 17 22 94 24
102 2 4 -8 12 -15 19 -15 18 0 -48 144 -67 148 -8 2 -27 -25 -48 -67z m65 -1
l16 -30 -31 0 c-16 0 -30 2 -30 5 0 7 23 55 26 55 2 0 10 -13 19 -30z"/>
<path d="M7780 2415 l0 -75 50 0 c62 0 90 23 90 75 0 52 -28 75 -90 75 l-50 0
0 -75z m83 54 c27 -15 37 -28 37 -53 0 -29 -30 -56 -62 -56 -28 0 -28 1 -28
60 0 65 8 72 53 49z"/>
<path d="M8070 2415 l0 -75 55 0 c30 0 55 5 55 10 0 6 -18 10 -40 10 -36 0
-40 3 -40 25 0 22 4 25 35 25 19 0 35 5 35 10 0 6 -16 10 -35 10 -30 0 -35 3
-35 24 0 22 5 25 43 29 36 3 34 4 -15 5 l-58 2 0 -75z"/>
<path d="M8510 2415 l0 -75 50 0 c28 0 50 5 50 10 0 6 -18 10 -40 10 -36 0
-40 3 -40 25 0 23 4 25 40 25 22 0 40 5 40 10 0 6 -18 10 -40 10 -36 0 -40 3
-40 24 0 22 5 25 43 29 40 3 40 4 -10 5 l-53 2 0 -75z"/>
<path d="M8785 2423 c-16 -36 -31 -70 -33 -75 -2 -4 3 -8 11 -8 8 0 17 7 21
15 4 10 20 15 51 15 33 0 45 -4 45 -15 0 -8 7 -15 15 -15 8 0 15 2 15 5 0 18
-72 145 -83 145 -6 0 -25 -30 -42 -67z m63 2 c16 -35 16 -35 -17 -35 -29 0
-30 1 -20 30 13 37 22 38 37 5z"/>
<path d="M9330 2446 c17 -26 30 -57 30 -75 0 -17 5 -31 10 -31 6 0 10 13 10
28 0 16 13 47 30 70 34 47 35 52 17 52 -7 0 -21 -13 -30 -30 -10 -16 -21 -30
-25 -30 -4 0 -16 14 -25 30 -10 17 -25 30 -33 30 -11 0 -7 -12 16 -44z"/>
</g>
</svg>
